<?xml version="1.0" encoding="UTF-8"?>
<svg id="Layer_1" data-name="Layer 1" xmlns="http://www.w3.org/2000/svg" viewBox="0 0 1174.34 1032.12">
  <defs>
    <style>
      .cls-1 {
        fill: #231f20;
      }

      .cls-2 {
        fill: #fff;
      }
    </style>
  </defs>
  <rect class="cls-1" x="-18.75" y="-3.03" width="1238.38" height="1068.12"/>
  <g>
    <path class="cls-2" d="M365.59,542.54c-6.59-7.24-13.83-13.7-21.74-19.37-7.91-5.66-15.42-10.87-22.53-15.61-6.06-3.95-12.25-8.16-18.58-12.65-6.32-4.48-12.12-9.35-17.39-14.62-5.27-5.27-9.62-10.93-13.04-17-3.43-6.06-5.14-12.65-5.14-19.76,0-14.49,4.94-26.22,14.82-35.18,9.88-8.96,22.99-13.44,39.33-13.44s30.17,4.35,40.71,13.04c10.54,8.7,16.86,20.03,18.97,33.99l1.98,15.42h8.3l-1.19-15.81c-.79-8.96-1.32-16.93-1.58-23.91-.27-6.98-.4-14.03-.4-21.15-7.65-3.69-16.93-6.78-27.87-9.29-.55-.13-1.11-.23-1.66-.35.16-1.11.01-2.3-.56-3.53-6.07-13-12.62-25.76-19.64-38.27.24-.42.45-.89.6-1.41,6.57-22.25,15.35-43.68,26.32-64.12,3.65-6.8-6.71-12.87-10.36-6.06-9.9,18.46-18.15,37.77-24.63,57.68-.58-.97-1.16-1.95-1.74-2.91-10.51-17.28-22.87-33.34-33.41-50.57-5.04-8.25-9.35-16.88-11.75-26.29-2.51-9.79-3.03-19.89-3.49-29.94-.04-.91-.08-1.82-.12-2.73,2.86-.83,5.4-3.51,4.83-7.26-1.1-7.2,4.59-13.91,9.17-18.74,4.91-5.17,10.21-9.96,15.56-14.66,10.31-9.07,21.01-17.75,30.54-27.67,9.51-9.89,17.64-21.01,22.69-33.84,6-15.24,7-32.1,8.49-48.25,1.79-19.38,2.59-38.87-1.87-57.96-1.76-7.52-13.33-4.33-11.57,3.19,3.99,17.06,3.23,34.61,1.7,51.94-1.43,16.21-2.24,33.37-8.6,48.57-10.7,25.58-35.19,42.1-55,60.13-6.02,5.48-12.54,11.46-17.1,18.33-.53-12.05-1.06-24.11-1.59-36.16-1.11-25.06-2.21-50.11-3.32-75.17-.34-7.69-12.34-7.73-12,0,1.98,44.84,3.96,89.68,5.94,134.52.91,20.63,2.42,40.3,12.01,58.98,9.37,18.26,22.69,34.39,33.62,51.72,11.85,18.77,22.53,38.25,32.1,58.27-6.31-.77-12.75-1.18-19.34-1.18-10.02,0-19.7,1.58-29.05,4.74-9.36,3.16-17.59,7.84-24.7,14.03-7.11,6.19-12.78,13.9-17,23.12-4.22,9.23-6.32,19.9-6.32,32.02,0,10.02,1.71,19.11,5.14,27.27,3.42,8.17,7.91,15.61,13.44,22.33,5.53,6.72,11.59,12.65,18.18,17.79,6.58,5.14,13.04,9.82,19.37,14.03,6.06,3.95,12.58,8.37,19.57,13.24,6.98,4.88,13.5,10.28,19.57,16.21,6.06,5.93,11.13,12.45,15.22,19.57,4.08,7.12,6.13,14.89,6.13,23.32,0,13.97-4.74,24.57-14.23,31.82-9.49,7.25-22.13,10.87-37.95,10.87-16.6,0-29.45-4.21-38.54-12.65-9.09-8.43-14.3-18.97-15.61-31.62l-1.98-18.18h-8.3l1.58,18.58c.79,8.96,1.32,16.34,1.58,22.13.26,5.8.4,12.25.4,19.37,3.27,1.69,6.62,3.21,10.04,4.58-12.09,4.66-24.22,9.2-36.41,13.61-12.86,4.65-27.43,9.16-36.52,20.05-9.58,11.47-7.24,24.74-9.45,38.41-1.1,6.81-4.35,11.29-11,13.58-8.19,2.83-17.12,4.23-25.65,5.65-20.61,3.43-41.58,4.33-62.42,3.12-7.71-.45-7.69,11.55,0,12,18.53,1.08,37.08.4,55.48-2.05,9.09-1.21,18.12-2.8,27.05-4.86,7.31-1.68,14.97-3.63,20.54-8.99,10.33-9.94,7.35-24.68,9.44-37.41,2.39-14.52,15.89-20.69,28.38-25.3,19.68-7.28,39.37-14.47,58.89-22.17,8.5,1.85,18.13,2.8,28.93,2.8,9.75,0,19.37-1.25,28.85-3.75,9.49-2.5,17.92-6.52,25.3-12.06,7.37-5.53,13.3-12.51,17.79-20.95,4.48-8.43,6.72-18.58,6.72-30.44,0-11.07-2.17-21.15-6.52-30.24-4.35-9.09-9.82-17.26-16.4-24.51Z"/>
    <path class="cls-2" d="M458.48,517.84c7.64-8.43,15.61-15.48,23.91-21.15,8.3-5.66,17.98-8.5,29.05-8.5,11.86,0,22.53,2.11,32.02,6.32,9.49,4.22,17.59,10.08,24.31,17.59,6.72,7.51,11.92,16.47,15.61,26.88,3.69,10.41,5.53,21.81,5.53,34.19,0,13.18-2.31,25.3-6.92,36.36-4.61,11.07-10.74,20.75-18.38,29.05-7.65,8.3-16.47,14.76-26.48,19.37-10.02,4.61-20.42,6.92-31.23,6.92s-20.69-1.72-28.85-5.14c-8.17-3.42-15.29-7.77-21.34-13.04-.27,13.44-.4,26.48-.4,39.13v39.92c0,4.21,1.25,7.18,3.75,8.89,2.5,1.71,5.73,2.3,9.68,1.78l16.21-2.37v7.51c-4.22.79-8.76,1.91-13.64,3.36-4.88,1.45-9.68,3.03-14.43,4.74-4.74,1.71-9.23,3.56-13.44,5.53-4.22,1.98-7.65,3.75-10.28,5.34l-3.16-2.77c1.05-8.7,1.98-22.13,2.77-40.32.79-18.18,1.45-43.48,1.98-75.89.52-27.93.79-51.32.79-70.16v-46.05c0-8.43-3.82-12.65-11.46-12.65h-11.46v-7.11c9.22-1.32,17.52-3.29,24.9-5.93,7.37-2.63,13.83-5.66,19.37-9.09l3.16,2.77c-.53,2.9-.86,6.32-.99,10.28-.14,3.95-.33,8.7-.59,14.23ZM458.08,528.51c-.53,13.7-.99,29.71-1.38,48.02-.4,18.32-.73,38.14-.99,59.49,7.11,6.32,14.43,11.01,21.94,14.03,7.51,3.03,16.4,4.55,26.68,4.55,9.49,0,18.11-1.84,25.89-5.53,7.77-3.69,14.43-8.63,19.96-14.82,5.53-6.19,9.81-13.37,12.85-21.54,3.03-8.17,4.55-16.73,4.55-25.69,0-11.59-1.65-22.33-4.94-32.21-3.3-9.88-7.91-18.38-13.83-25.49-5.93-7.11-13.04-12.71-21.34-16.8-8.3-4.08-17.46-6.13-27.47-6.13-8.44,0-16.21,2.24-23.32,6.72-7.11,4.48-13.31,9.62-18.58,15.42Z"/>
    <g>
      <path class="cls-2" d="M719.62,337.72c.96-1.96.78-4.32-1.47-6.18-.34-.28-.65-.57-.98-.86-2.55-6.94-4.69-13.95-5.5-21.35-1.73-15.79,1.04-31.84,8.15-46.05,3.45-6.89-6.9-12.97-10.36-6.06-7.04,14.07-10.71,29.61-10.25,45.38.09,3.02.33,6.06.71,9.08-1-1.27-2-2.53-3.01-3.79-6.96-8.73-13.92-17.45-20.88-26.18-12.57-15.78-25.18-32.16-31.48-51.59-2.37-7.32-13.96-4.19-11.57,3.19,6.61,20.4,19.24,37.55,32.41,54.18,7.05,8.9,14.15,17.75,21.23,26.63,6.56,8.23,12.89,16.82,20.73,23.88,1.05,2.99,1.89,6,2.15,9.1.65,7.69-4.5,14.23-8.88,20.02-4.89,6.46-10.04,12.72-15.37,18.82-8.45,9.68-17.42,18.88-26.83,27.63-.42-.49-.87-.98-1.34-1.46-4.09-4.08-8.76-6.13-14.03-6.13s-9.95,2.17-14.03,6.52c-4.09,4.35-6.13,8.89-6.13,13.64,0,5.01,2.04,9.62,6.13,13.83,4.08,4.22,8.76,6.32,14.03,6.32s9.94-2.04,14.03-6.13c4.08-4.08,6.13-8.76,6.13-14.03,0-.22-.02-.43-.03-.65,10.77-9.76,20.99-20.12,30.56-31.07,5.42-6.2,10.61-12.59,15.62-19.12,4.65-6.06,9.57-12.42,11.38-20,1.44-6.02.58-11.86-1.13-17.58Z"/>
      <path class="cls-2" d="M688.95,836.12c-3.74-14.43-7.61-28.96-9.37-43.8-.88-7.43-1.17-14.91-2.19-22.33-.98-7.2-2.87-14.11-5.11-21.01-4.49-13.82-8.43-27.57-9.85-42.1-1.43-14.67-.94-29.49,1.55-44.01.05-.31.08-.61.09-.91,5.59.35,10.98.53,16.14.53v-7.11h-11.46c-5.01,0-8.83-1.25-11.46-3.76-2.64-2.5-3.95-6.78-3.95-12.85v-11.07c0-5.79.06-12.85.2-21.15.13-8.3.33-17.45.59-27.47.26-10.01.53-20.09.79-30.24.26-10.14.53-20.02.79-29.64.26-9.62.53-18.11.79-25.49l-4.35-3.16c-6.86,4.48-13.38,7.91-19.57,10.28-6.19,2.37-13.9,4.09-23.12,5.14v7.11h10.67c7.64,0,11.46,4.22,11.46,12.65v113.05c0,6.06-1.32,10.34-3.95,12.85-2.64,2.51-6.46,3.76-11.46,3.76h-11.46v7.11c6.32,0,12.78-.26,19.37-.79,3.48-.28,6.78-.48,9.89-.61.32,16.17-.19,32.35-1.64,48.47-.78,8.68-1.47,17.77-6.8,25.03-5,6.82-12.38,11.88-18.6,17.5-14.05,12.68-26.73,26.85-39.31,40.96-12.87,14.43-25.43,29.14-37.71,44.08-4.87,5.92,3.58,14.46,8.49,8.49,11.63-14.16,23.54-28.09,35.71-41.8.39,8.84-.85,17.75-2.15,26.49-1.64,11.06-3.33,22.12-5.53,33.09-4.33,21.54-10.81,42.63-23.1,61.04-4.3,6.44,6.09,12.46,10.36,6.06,13.14-19.69,20.12-42.55,24.64-65.6,2.28-11.64,4.05-23.38,5.75-35.12,1.82-12.65,3.04-25.17.63-37.81,11.08-12.25,22.42-24.32,34.93-35.12,6.6-5.7,13.6-11.27,18.03-18.95,4.3-7.46,5.44-15.99,6.29-24.41,1.76-17.45,2.37-35,2.01-52.53,1.96.05,4.04.13,6.2.23-4.82,29.6-2.01,58.92,7.36,87.39,2.35,7.15,4.72,14.33,5.88,21.79,1.18,7.58,1.35,15.29,2.28,22.9,1.91,15.61,5.74,30.83,9.68,46.03,1.94,7.47,13.52,4.3,11.57-3.19Z"/>
    </g>
    <path class="cls-2" d="M921.55,94.23c-3.89,15.36-8.11,30.66-13.73,45.49-5.64,14.9-13.28,28.52-21.48,42.13-15.92,26.43-26.16,54.61-26.84,85.74-.33,15.27,2.06,30.04,5.39,44.88,3.39,15.09,4.38,28.8-4.59,42.11-7.05,10.45-17.23,18.51-26.34,27.06-9.96,9.35-18.75,19.84-25.95,31.48-13.57,21.96-21.42,47.36-22.63,73.12-.14,0-.28-.02-.42-.02-5.01,7.65-10.87,13.97-17.59,18.97-6.72,5.01-14.56,9.49-23.52,13.44v-7.11c0-5,.4-9.35,1.19-13.04.26-2.11.66-4.21,1.19-6.32l-3.56-2.77c-2.9,1.85-6.98,2.77-12.25,2.77s-10.54-.26-15.81-.79c-5.28-.52-11.73-.79-19.37-.79v6.72h11.46c10.28,0,15.42,5.8,15.42,17.39v49.01c0,12.12-.07,24.9-.2,38.34-.14,13.44-.46,25.69-.99,36.76,0,6.06-1.45,10.34-4.35,12.85-2.9,2.51-6.85,3.76-11.86,3.76h-14.62v7.11c10.01.26,18.18.06,24.51-.59s12.12-.99,17.39-.99c1,0,2.06.02,3.15.04-1.43,1.32-2.32,3.26-1.99,5.62,5.31,37.94,19,74.45,39.82,106.61,4.18,6.46,14.58.45,10.36-6.06-20.33-31.39-33.43-66.71-38.61-103.74-.11-.79-.34-1.46-.66-2.03,2.3.15,4.72.33,7.29.55,7.64.65,16.07.85,25.3.59v-7.11h-16.21c-5.01,0-9.03-1.25-12.05-3.76-3.03-2.5-4.55-6.78-4.55-12.85v-112.65c2.11-2.11,4.8-4.01,8.1-5.73,3.29-1.71,6.52-2.57,9.68-2.57,7.38,0,13.24,1.32,17.59,3.95,4.35,2.64,8.16,5.4,11.46,8.3,3.29,2.9,6.58,5.53,9.88,7.91,3.29,2.37,7.71,3.3,13.24,2.77,3.69-2.63,7.37-5.53,11.07-8.7,3.16-2.9,6.58-6.19,10.28-9.88,3.69-3.69,7.24-7.91,10.67-12.65l-4.35-3.95c-2.64,2.9-4.88,5.08-6.72,6.52-1.85,1.45-4.62,2.17-8.3,2.17-4.22,0-8.1-1.45-11.66-4.35-3.56-2.9-6.99-6.13-10.28-9.68-2.47-2.66-4.89-5.14-7.29-7.43.14-24.33,6.53-48.35,18.69-69.53,6.74-11.74,15.11-22.28,24.89-31.62,9.18-8.77,19.07-16.85,26.87-26.95,8.3-10.76,12.84-23.22,11.85-36.93-1.14-15.63-6.59-30.54-7.7-46.22-2.17-30.8,5.55-60.64,21.03-87.21,8.87-15.22,17.9-29.95,24.53-46.35,6.63-16.4,11.39-33.46,15.72-50.58,1.9-7.49-9.67-10.68-11.57-3.19Z"/>
    <g>
      <path class="cls-2" d="M907.88,655.39c-5.01,0-8.83-1.25-11.46-3.76-2.64-2.5-3.95-6.78-3.95-12.85v-11.07c0-5.79.06-12.85.2-21.15.13-8.3.33-17.45.59-27.47.26-10.01.53-20.09.79-30.24.26-10.14.52-20.02.79-29.64.26-9.62.53-18.11.79-25.49l-4.35-3.16c-6.85,4.48-13.38,7.91-19.57,10.28-6.19,2.37-13.9,4.09-23.12,5.14v7.11h10.67c7.64,0,11.46,4.22,11.46,12.65v113.05c0,6.06-1.32,10.34-3.95,12.85-2.64,2.51-6.46,3.76-11.46,3.76h-11.46v7.11c6.32,0,12.78-.26,19.37-.79,6.16-.49,11.73-.75,16.75-.78-1,14.67-8.55,27.81-16.19,40.22-8.5,13.82-17.35,27.87-20.08,44.15-1.26,7.55,10.3,10.8,11.57,3.19,5.33-31.86,34.95-54.52,36.73-87.25,2.34.12,4.8.28,7.38.47,6.98.53,13.64.79,19.96.79v-7.11h-11.46Z"/>
      <path class="cls-2" d="M882.19,446.29c5.27,0,9.94-2.04,14.03-6.13,4.08-4.08,6.13-8.76,6.13-14.03s-2.04-9.94-6.13-14.03c-4.09-4.08-8.76-6.13-14.03-6.13s-9.95,2.17-14.03,6.52c-4.09,4.35-6.13,8.89-6.13,13.64,0,5.01,2.04,9.62,6.13,13.83,4.08,4.22,8.76,6.32,14.03,6.32Z"/>
    </g>
    <path class="cls-2" d="M1066.39,759.12c-.48-.99-1.48-2.14-1.99-2.96-1.42-2.27-2.83-4.56-4.2-6.86-2.6-4.34-5.13-8.74-7.57-13.17-5.17-9.4-9.98-18.99-14.4-28.76-6.79-15-12.57-30.43-17.46-46.14,5.11-2.29,9.73-5.08,13.8-8.41,4.35-3.56,8.17-7.51,11.46-11.86,3.29-4.35,5.86-8.5,7.71-12.45l-4.35-3.95c-3.16,3.69-8.1,7.31-14.82,10.87-6.72,3.56-14.69,5.34-23.91,5.34s-16.6-2.3-22.13-6.92c-5.53-4.61-8.57-11.27-9.09-19.96-.53-7.91-.86-17.65-.99-29.25-.14-11.59-.2-22.92-.2-33.99v-39.53c8.96,0,16.86.14,23.72.4,6.85.27,12.65.66,17.39,1.19l14.23,1.19,26.09-28.46-3.56-3.95c-3.69,2.9-7.65,5.14-11.86,6.72-4.22,1.58-9.09,2.37-14.62,2.37h-50.59v-35.43c5.46-8.47,9.39-17.88,13.66-26.98,4.78-10.18,9.55-20.36,14.33-30.54,3.26-6.95-7.08-13.05-10.36-6.06-4.78,10.18-9.55,20.36-14.33,30.54-4.42,9.43-8.47,19.19-14.24,27.9-2.57,3.88.15,7.59,3.65,8.55l-48.44,52.57h44.67c-.27,3.16-.73,8.1-1.38,14.82-.66,6.72-1.45,14.3-2.37,22.73-.93,8.44-1.92,17.46-2.96,27.08-1.06,9.62-2.11,18.91-3.16,27.87-2.64,22.13.06,37.95,8.1,47.43,8.04,9.49,20.09,14.23,36.17,14.23,2.36,0,4.68-.19,6.96-.55,6.08,19.44,13.52,38.43,22.33,56.81,5.41,11.28,11.33,22.32,17.74,33.07,3.64,6.09,13.71,25.63,22.96,14.78,4.2-4.93-1.15-11.77-5.94-10.26Z"/>
  </g>
  <path class="cls-2" d="M896.94,742.09c-3.27-12.11-4.85-24.47-4.71-37.09.05-4.16-3.4-6.07-6.62-5.76,1.11-12.27,1.2-24.56.25-36.86-.59-7.65-12.59-7.71-12,0,1.09,14.22.81,28.43-.84,42.59-.54,4.64,3.66,6.44,7.24,5.45.35,14.14,2.72,28.14,7.09,41.62,1.02,3.13,4.11,5.01,7.38,4.19,3.88-.98,5.93-3.38,7.4-6.97,1.73-4.21-1.59-7.01-5.21-7.16Z"/>
</svg>